<svg width="91" height="93" viewBox="0 0 91 93" fill="none" xmlns="http://www.w3.org/2000/svg">
<g clip-path="url(#clip0)">
<path d="M57.13 27.88H36.6C33.7886 27.8853 31.094 29.0052 29.107 30.9941C27.12 32.983 26.0027 35.6786 26 38.49V59C25.9974 60.3946 26.2695 61.7761 26.8008 63.0656C27.332 64.3551 28.1121 65.5273 29.0964 66.5153C30.0807 67.5034 31.25 68.2878 32.5374 68.824C33.8249 69.3601 35.2054 69.6374 36.6 69.64H57.13C58.5255 69.6387 59.907 69.3624 61.1957 68.8268C62.4843 68.2913 63.6547 67.507 64.6401 66.5189C65.6255 65.5307 66.4064 64.3581 66.9383 63.0679C67.4702 61.7778 67.7426 60.3955 67.74 59V38.49C67.7374 35.6769 66.6187 32.9797 64.6295 30.9905C62.6403 29.0013 59.9432 27.8827 57.13 27.88ZM47.08 61.43C44.5737 61.432 42.1231 60.6906 40.0382 59.2996C37.9533 57.9086 36.3278 55.9305 35.3673 53.6155C34.4068 51.3006 34.1545 48.7527 34.6423 46.2943C35.13 43.8359 36.3359 41.5774 38.1074 39.8045C39.879 38.0316 42.1365 36.8239 44.5945 36.3342C47.0526 35.8445 49.6006 36.0948 51.9163 37.0535C54.232 38.0122 56.2114 39.6361 57.604 41.7199C58.9967 43.8037 59.74 46.2537 59.74 48.76C59.7347 52.1169 58.3995 55.335 56.0268 57.7097C53.654 60.0843 50.437 61.4221 47.08 61.43ZM60.48 38.26C59.8867 38.26 59.3067 38.0841 58.8133 37.7544C58.32 37.4248 57.9354 36.9562 57.7084 36.4081C57.4813 35.8599 57.4219 35.2567 57.5377 34.6747C57.6534 34.0928 57.9391 33.5582 58.3587 33.1387C58.7783 32.7191 59.3128 32.4334 59.8947 32.3177C60.4767 32.2019 61.0799 32.2613 61.6281 32.4884C62.1763 32.7154 62.6448 33.0999 62.9744 33.5933C63.3041 34.0866 63.48 34.6667 63.48 35.26C63.48 36.0557 63.164 36.8187 62.6013 37.3813C62.0387 37.9439 61.2757 38.26 60.48 38.26Z" fill="#010101"/>
<path d="M47.08 40.65C45.476 40.65 43.908 41.1256 42.5743 42.0168C41.2406 42.9079 40.2011 44.1745 39.5873 45.6564C38.9735 47.1383 38.8129 48.769 39.1258 50.3422C39.4387 51.9154 40.2111 53.3604 41.3453 54.4946C42.4795 55.6288 43.9246 56.4012 45.4978 56.7142C47.071 57.0271 48.7016 56.8665 50.1835 56.2527C51.6654 55.6388 52.9321 54.5993 53.8232 53.2657C54.7143 51.932 55.19 50.364 55.19 48.76C55.1873 46.6099 54.332 44.5486 52.8117 43.0283C51.2913 41.5079 49.2301 40.6526 47.08 40.65Z" fill="#010101"/>
<path d="M46.86 5C38.1812 5.00001 29.6974 7.5742 22.4819 12.3969C15.2665 17.2196 9.64357 24.0741 6.32462 32.0932C3.00568 40.1124 2.13983 48.9357 3.83663 57.447C5.53342 65.9583 9.7166 73.7751 15.8569 79.9085C21.9973 86.0418 29.8188 90.2161 38.3321 91.9031C46.8453 93.5902 55.6677 92.7143 63.683 89.3862C71.6983 86.0581 78.5464 80.4274 83.3609 73.2065C88.1754 65.9855 90.7399 57.4988 90.73 48.82C90.7194 37.1928 86.0924 26.0456 77.866 17.8286C69.6397 9.61163 58.4872 4.99735 46.86 5ZM72.58 59C72.5826 63.1012 70.9567 67.0356 68.0595 69.9383C65.1624 72.8411 61.2311 74.4747 57.13 74.48H36.6C32.4988 74.4747 28.5676 72.8411 25.6704 69.9383C22.7733 67.0356 21.1473 63.1012 21.15 59V38.49C21.1474 36.4585 21.5449 34.4463 22.3199 32.5684C23.0949 30.6905 24.2322 28.9836 25.6669 27.5452C27.1016 26.1068 28.8055 24.9651 30.6814 24.1852C32.5573 23.4054 34.5684 23.0026 36.6 23H57.13C59.1615 23.0026 61.1727 23.4054 63.0486 24.1852C64.9245 24.9651 66.6284 26.1068 68.0631 27.5452C69.4977 28.9836 70.635 30.6905 71.4101 32.5684C72.1851 34.4463 72.5826 36.4585 72.58 38.49V59Z" fill="#010101"/>
<path d="M54.13 22.93H33.6C30.7886 22.9353 28.094 24.0551 26.107 26.044C24.12 28.0329 23.0026 30.7286 23 33.54V54.07C23.0026 56.8814 24.12 59.577 26.107 61.5659C28.094 63.5548 30.7886 64.6747 33.6 64.68H54.13C56.9431 64.6773 59.6403 63.5587 61.6295 61.5695C63.6187 59.5803 64.7374 56.8831 64.74 54.07V33.54C64.7374 30.7269 63.6187 28.0297 61.6295 26.0405C59.6403 24.0513 56.9431 22.9326 54.13 22.93ZM44.08 56.47C41.5737 56.472 39.1231 55.7306 37.0382 54.3396C34.9533 52.9486 33.3278 50.9705 32.3673 48.6555C31.4068 46.3406 31.1545 43.7927 31.6422 41.3343C32.13 38.8759 33.3359 36.6174 35.1074 34.8445C36.879 33.0716 39.1365 31.8639 41.5945 31.3742C44.0525 30.8845 46.6006 31.1348 48.9163 32.0935C51.232 33.0522 53.2114 34.6761 54.604 36.7599C55.9967 38.8437 56.74 41.2937 56.74 43.8C56.7374 47.1577 55.403 50.3774 53.0297 52.7526C50.6563 55.1278 47.4377 56.4647 44.08 56.47ZM57.48 33.3C56.8867 33.3 56.3066 33.124 55.8133 32.7944C55.3199 32.4648 54.9354 31.9962 54.7084 31.448C54.4813 30.8999 54.4219 30.2967 54.5376 29.7147C54.6534 29.1328 54.9391 28.5982 55.3587 28.1787C55.7782 27.7591 56.3128 27.4734 56.8947 27.3576C57.4767 27.2419 58.0799 27.3013 58.6281 27.5284C59.1762 27.7554 59.6448 28.1399 59.9744 28.6333C60.3041 29.1266 60.48 29.7066 60.48 30.3C60.48 31.0956 60.1639 31.8587 59.6013 32.4213C59.0387 32.9839 58.2757 33.3 57.48 33.3Z" fill="white"/>
<path d="M44.08 35.69C42.4732 35.688 40.9019 36.1628 39.565 37.0543C38.2282 37.9458 37.1859 39.2138 36.57 40.698C35.9542 42.1821 35.7926 43.8156 36.1056 45.3917C36.4185 46.9677 37.1921 48.4155 38.3283 49.5517C39.4645 50.6879 40.9123 51.4615 42.4883 51.7745C44.0644 52.0874 45.6979 51.9258 47.182 51.31C48.6662 50.6942 49.9342 49.6518 50.8257 48.315C51.7172 46.9781 52.192 45.4068 52.19 43.8C52.1874 41.6499 51.3321 39.5886 49.8117 38.0683C48.2914 36.5479 46.2301 35.6926 44.08 35.69Z" fill="white"/>
<path d="M43.86 1.1401e-06C35.1829 1.36552e-06 26.7007 2.57318 19.4861 7.39412C12.2715 12.2151 6.64858 19.0672 3.32846 27.084C0.00833535 35.1008 -0.859853 43.9221 0.833692 52.4323C2.52724 60.9425 6.70644 68.7594 12.8428 74.8943C18.9791 81.0292 26.7969 85.2067 35.3075 86.8983C43.8181 88.5899 52.6392 87.7197 60.6553 84.3977C68.6713 81.0758 75.5221 75.4513 80.3414 68.2356C85.1607 61.0199 87.732 52.5371 87.73 43.86C87.73 38.0994 86.5952 32.3952 84.3904 27.0732C82.1856 21.7512 78.954 16.9157 74.8802 12.8428C70.8063 8.76985 65.9701 5.53936 60.6476 3.33577C55.3251 1.13219 49.6206 -0.00131227 43.86 1.1401e-06ZM69.58 54.07C69.5747 58.166 67.9453 62.0927 65.049 64.989C62.1527 67.8852 58.226 69.5147 54.13 69.52H33.6C29.504 69.5147 25.5773 67.8852 22.6811 64.989C19.7848 62.0927 18.1553 58.166 18.15 54.07V33.54C18.1553 29.444 19.7848 25.5173 22.6811 22.621C25.5773 19.7248 29.504 18.0953 33.6 18.09H54.13C58.226 18.0953 62.1527 19.7248 65.049 22.621C67.9453 25.5173 69.5747 29.444 69.58 33.54V54.07Z" fill="white"/>
</g>
<defs>
<clipPath id="clip0">
<rect width="90.73" height="92.69" fill="white"/>
</clipPath>
</defs>
</svg>
