<svg width="91" height="93" viewBox="0 0 91 93" fill="none" xmlns="http://www.w3.org/2000/svg">
<g clip-path="url(#clip0)">
<path d="M90.73 48.82C90.7301 40.4364 88.3279 32.2284 83.808 25.1676C79.2881 18.1068 72.8397 12.489 65.2262 8.97924C57.6127 5.46946 49.1529 4.2147 40.8484 5.36351C32.5439 6.51232 24.7425 10.0166 18.3678 15.4615C11.993 20.9063 7.31186 28.0638 4.87854 36.0864C2.44522 44.1091 2.36162 52.661 4.63763 60.7297C6.91364 68.7984 11.454 76.046 17.721 81.6145C23.9881 87.1829 31.7196 90.8391 40 92.15V61.5H28.87V48.82H40V39.16C40 28.16 46.55 22.09 56.57 22.09C59.8645 22.152 63.1501 22.4561 66.4 23V33.74H60.87C55.42 33.74 53.72 37.13 53.72 40.59V48.82H65.88L63.94 61.5H53.72V92.15C64.0375 90.5165 73.4336 85.2551 80.218 77.3122C87.0024 69.3692 90.7299 59.266 90.73 48.82Z" fill="#010101"/>
<path d="M87.73 43.86C87.7281 35.4769 85.3244 27.2698 80.8033 20.2103C76.2822 13.1507 69.8331 7.53441 62.2194 4.0261C54.6056 0.517802 46.1461 -0.735566 37.8422 0.414372C29.5383 1.56431 21.7378 5.0694 15.364 10.5147C8.99014 15.96 4.30997 23.1176 1.87745 31.14C-0.555057 39.1625 -0.638047 47.714 1.63831 55.7821C3.91466 63.8503 8.45505 71.0973 14.722 76.6653C20.9889 82.2333 28.72 85.8891 37 87.2V56.54H25.87V43.86H37V34.2C37 23.2 43.55 17.13 53.57 17.13C56.8635 17.1787 60.1491 17.4695 63.4 18V28.8H57.87C52.42 28.8 50.72 32.18 50.72 35.65V43.87H62.88L60.94 56.54H50.72V87.2C61.0375 85.5624 70.4325 80.2985 77.2164 72.3543C84.0004 64.4101 87.7282 54.3066 87.73 43.86Z" fill="white"/>
</g>
<defs>
<clipPath id="clip0">
<rect width="90.73" height="92.15" fill="white"/>
</clipPath>
</defs>
</svg>
