<svg width="91" height="93" viewBox="0 0 91 93" fill="none" xmlns="http://www.w3.org/2000/svg">
<g clip-path="url(#clip0)">
<path d="M46.86 5C38.1812 5.00001 29.6974 7.5742 22.482 12.3969C15.2665 17.2196 9.6436 24.0741 6.32466 32.0932C3.00571 40.1124 2.13987 48.9357 3.83666 57.447C5.53345 65.9583 9.71663 73.7751 15.857 79.9085C21.9973 86.0418 29.8189 90.2161 38.3321 91.9031C46.8453 93.5902 55.6677 92.7143 63.683 89.3862C71.6983 86.0581 78.5464 80.4274 83.3609 73.2065C88.1754 65.9855 90.7399 57.4988 90.73 48.82C90.7194 37.1928 86.0924 26.0456 77.8661 17.8286C69.6397 9.61163 58.4872 4.99735 46.86 5ZM71.3 33.83C71.3015 34.1085 71.21 34.3795 71.04 34.6C69.9722 36.1155 68.6848 37.4636 67.22 38.6C67 38.77 66.64 38.94 66.64 39.25C66.64 47.15 64.64 55.04 58.86 60.76C51.53 68 40.53 70 30.76 67.3C28.8768 66.7711 27.0562 66.0402 25.33 65.12C24.75 64.81 24.19 64.49 23.63 64.12C23.49 64.01 23.39 63.9 23.51 63.83C23.63 63.76 23.72 63.76 24.16 63.83C26.9104 64.0844 29.6833 63.7433 32.29 62.83C33.71 62.33 36.76 61.33 37.64 59.99C37.64 59.99 37.64 59.99 37.7 59.93C37.34 59.84 36.99 59.84 36.63 59.78C34 59 30.44 57.65 28.8 53.18C28.69 52.92 28.8 52.78 29.07 52.83C30.3108 53.0009 31.5714 52.9637 32.8 52.72C32.3628 52.6404 31.9365 52.5095 31.53 52.33C29.8718 51.6586 28.4219 50.5583 27.3289 49.142C26.2359 47.7257 25.5392 46.0443 25.31 44.27C25.2478 43.9001 25.2244 43.5248 25.24 43.15C25.24 42.88 25.38 42.8 25.61 42.95C26.7945 43.5487 28.0862 43.9056 29.41 44C28.98 43.67 28.59 43.3 28.2 42.94C25.3 40.19 24.2 34.6 26.5 31.13C26.69 30.84 26.81 30.84 27.04 31.13C32.34 37.13 38.87 39.99 46.75 41.13C46.96 41.13 46.98 41.13 46.95 40.9C46.713 39.5334 46.7469 38.1335 47.05 36.78C47.4232 35.3493 48.1059 34.0179 49.05 32.88C49.9455 31.7792 51.0544 30.871 52.31 30.21C53.5666 29.5538 54.9457 29.1656 56.36 29.07C57.8138 28.9782 59.2696 29.214 60.62 29.76C61.6308 30.176 62.5691 30.7498 63.4 31.46C63.57 31.61 63.73 31.79 63.9 31.97C63.9473 32.0243 64.0093 32.0636 64.0786 32.0831C64.1479 32.1027 64.2214 32.1016 64.29 32.08C66.2769 31.5945 68.1951 30.8622 70 29.9C70.0404 29.8798 70.0849 29.8692 70.13 29.8692C70.1751 29.8692 70.2197 29.8798 70.26 29.9C70.34 29.97 70.31 30.07 70.26 30.15C69.9124 31.2192 69.3661 32.2133 68.65 33.08C68.19 33.65 67.05 35.08 66.27 35.19C67.9364 34.942 69.5634 34.4781 71.11 33.81C71.3 33.72 71.31 33.69 71.31 33.81L71.3 33.83Z" fill="#010101"/>
<path d="M43.86 1.1401e-06C35.1829 1.36552e-06 26.7007 2.57318 19.4861 7.39412C12.2715 12.2151 6.64858 19.0672 3.32846 27.084C0.00833535 35.1008 -0.859853 43.9221 0.833692 52.4323C2.52724 60.9425 6.70644 68.7594 12.8428 74.8943C18.9791 81.0292 26.7969 85.2067 35.3075 86.8983C43.8181 88.5899 52.6392 87.7197 60.6553 84.3977C68.6713 81.0758 75.5221 75.4513 80.3414 68.2356C85.1607 61.0199 87.732 52.5371 87.73 43.86C87.73 38.0994 86.5952 32.3952 84.3904 27.0732C82.1856 21.7512 78.954 16.9157 74.8802 12.8428C70.8063 8.76985 65.9701 5.53936 60.6476 3.33577C55.3251 1.13219 49.6206 -0.00131227 43.86 1.1401e-06ZM68.3 28.88C68.3001 29.1552 68.2086 29.4225 68.04 29.64C66.9722 31.1555 65.6848 32.5036 64.22 33.64C64 33.81 63.64 33.98 63.64 34.29C63.64 42.19 61.64 50.08 55.86 55.8C48.53 63.08 37.53 65.07 27.76 62.37C25.8756 61.8489 24.0546 61.1211 22.33 60.2C21.75 59.88 21.19 59.56 20.63 59.2C20.49 59.09 20.39 58.98 20.51 58.91C20.63 58.84 20.72 58.85 21.16 58.91C23.9071 59.1652 26.6769 58.8241 29.28 57.91C30.71 57.41 33.76 56.41 34.64 55.07C34.64 55.07 34.64 55.07 34.7 55.01C34.34 54.93 33.99 54.93 33.63 54.86C31 54 27.44 52.69 25.8 48.22C25.69 47.96 25.8 47.82 26.07 47.88C27.3113 48.0496 28.5722 48.0091 29.8 47.76C29.3628 47.6804 28.9365 47.5495 28.53 47.37C26.8798 46.7035 25.4353 45.6125 24.3429 44.2075C23.2505 42.8025 22.5491 41.1336 22.31 39.37C22.2481 38.9967 22.2246 38.6181 22.24 38.24C22.24 37.98 22.38 37.89 22.61 38.04C23.792 38.6465 25.0847 39.0071 26.41 39.1C25.98 38.77 25.59 38.4 25.2 38.04C22.3 35.29 21.2 29.71 23.5 26.23C23.69 25.95 23.81 25.95 24.04 26.23C29.34 32.23 35.87 35.09 43.75 36.23C43.96 36.23 43.98 36.23 43.95 36C43.713 34.6334 43.7469 33.2335 44.05 31.88C44.4232 30.4493 45.1059 29.1179 46.05 27.98C46.9441 26.8798 48.0538 25.9743 49.311 25.319C50.5681 24.6638 51.9461 24.2728 53.36 24.17C54.8138 24.0782 56.2696 24.314 57.62 24.86C58.6308 25.276 59.5691 25.8498 60.4 26.56C60.5765 26.7236 60.7435 26.8972 60.9 27.08C60.9498 27.1306 61.0124 27.1666 61.0811 27.1842C61.1498 27.2018 61.2221 27.2004 61.29 27.18C63.277 26.6948 65.1953 25.9625 67 25C67.0395 24.9772 67.0844 24.9652 67.13 24.9652C67.1756 24.9652 67.2205 24.9772 67.26 25C67.34 25.07 67.31 25.17 67.26 25.26C66.9146 26.3271 66.3681 27.3183 65.65 28.18C65.19 28.75 64.05 30.18 63.27 30.29C64.9364 30.042 66.5634 29.5781 68.11 28.91C68.3 28.83 68.31 28.79 68.31 28.91L68.3 28.88Z" fill="white"/>
</g>
<defs>
<clipPath id="clip0">
<rect width="90.73" height="92.69" fill="white"/>
</clipPath>
</defs>
</svg>
