<?xml version="1.0" encoding="utf-8"?>
<!-- Generator: Adobe Illustrator 23.0.1, SVG Export Plug-In . SVG Version: 6.00 Build 0)  -->
<svg version="1.1" id="Layer_1" xmlns="http://www.w3.org/2000/svg" xmlns:xlink="http://www.w3.org/1999/xlink" x="0px" y="0px"
	 viewBox="0 0 1920 536" style="enable-background:new 0 0 1920 536;" xml:space="preserve">
<style type="text/css">
	.st0{fill:#FFFFFF;}
</style>
<g>
	<g>
		<path class="st0" d="M1297.96,406.25c0,43.46-8.28,75.58-24.83,96.34c-16.55,20.77-41.02,31.14-73.39,31.14
			c-65.11,0-97.67-42.49-97.67-127.48V147.67c0-43.46,8.64-75.44,25.93-95.97c17.29-20.52,41.2-30.79,71.73-30.79
			c33.47,0,58.21,10.27,74.21,30.79c16,20.53,24.01,52.51,24.01,95.97V406.25z M1230.09,125.88c0-12.61-2.91-21.67-8.7-27.16
			c-5.8-5.48-12.98-8.23-21.55-8.23c-8.58,0-15.88,2.75-21.93,8.23c-6.05,5.49-9.08,14.55-9.08,27.16v302.89
			c0,13.16,3.03,22.36,9.08,27.57c6.05,5.22,13.35,7.82,21.93,7.82c8.57,0,15.75-2.6,21.55-7.82c5.79-5.21,8.7-14.41,8.7-27.57
			V125.88z"/>
		<path class="st0" d="M336.48,444.58l-40.13-100.32h-2.74v99.15h-64.13V118.11h69.52l63.5,203.17h3.28l63.5-287.06h69.53v494.27
			h-64.46V324.2h-2.19l-35.83,120.38H336.48z"/>
		<path class="st0" d="M1426.11,444.58l-40.13-100.32h-2.74v99.15h-64.13V118.11h69.52l63.5,203.17h3.28l63.5-287.06h69.53v494.27
			H1524V324.2h-2.19l-35.83,120.38H1426.11z"/>
		<rect x="1614.64" y="32.74" class="st0" width="76.93" height="495.76"/>
		<polygon class="st0" points="897.16,30.88 672.39,30.88 660.89,95.61 736.1,95.61 736.1,524.89 813.68,524.89 813.68,95.61 
			885.66,95.61 		"/>
		<g>
			<path class="st0" d="M1016.4,456.34c-5.8,5.22-12.98,7.82-21.55,7.82c-8.58,0-15.88-2.6-21.93-7.82
				c-6.05-5.21-9.08-14.41-9.08-27.57V125.88c0-12.61,3.03-21.67,9.08-27.16c6.05-5.48,13.35-8.23,21.93-8.23
				c8.57,0,15.75,2.75,21.55,8.23c2.32,2.2,4.17,4.98,5.56,8.32h68.18c-3.61-23.4-10.67-41.84-21.19-55.33
				c-16-20.52-40.75-30.79-74.21-30.79c-30.54,0-54.45,10.27-71.73,30.79c-17.29,20.53-25.93,52.51-25.93,95.97v258.58
				c0,84.99,32.55,127.48,97.67,127.48c32.37,0,56.83-10.38,73.39-31.14c11.75-14.74,19.33-35.21,22.74-61.39h-66.86
				C1022.68,447.91,1020.15,452.97,1016.4,456.34z"/>
		</g>
		<g>
			<path class="st0" d="M1843.24,456.34c-5.8,5.22-12.98,7.82-21.55,7.82c-8.58,0-15.88-2.6-21.93-7.82
				c-6.05-5.21-9.08-14.41-9.08-27.57V125.88c0-12.61,3.03-21.67,9.08-27.16c6.05-5.48,13.35-8.23,21.93-8.23
				c8.57,0,15.75,2.75,21.55,8.23c2.32,2.2,4.17,4.98,5.56,8.32h68.18c-3.61-23.4-10.67-41.84-21.19-55.33
				c-16-20.52-40.75-30.79-74.21-30.79c-30.54,0-54.45,10.27-71.73,30.79c-17.29,20.53-25.93,52.51-25.93,95.97v258.58
				c0,84.99,32.55,127.48,97.67,127.48c32.37,0,56.83-10.38,73.39-31.14c11.75-14.74,19.33-35.21,22.74-61.39h-66.86
				C1849.52,447.91,1846.99,452.97,1843.24,456.34z"/>
		</g>
		<g>
			<path class="st0" d="M588.18,31.22v397.55c0,13.16,2.91,22.36,8.7,27.57c5.8,5.22,12.98,7.82,21.55,7.82
				c8.58,0,15.88-2.6,21.93-7.82c6.05-5.21,9.08-14.41,9.08-27.57V115.31h66.76v290.94c0,84.99-32.55,127.48-97.67,127.48
				c-32.37,0-56.83-10.38-73.39-31.14c-16.55-20.76-24.83-52.88-24.83-96.34V31.22H588.18z"/>
		</g>
		<g>
			<path class="st0" d="M73.24,443.18c-0.16-0.65-0.32-1.3-0.45-1.99h-0.48c0.01,0.03,0.02,0.06,0.03,0.09
				C72.62,441.93,72.92,442.56,73.24,443.18z"/>
			<path class="st0" d="M187.02,54.6c-0.7-0.99-1.41-1.96-2.15-2.9c-5.27-6.76-11.51-12.38-18.67-16.91
				C174.36,40.42,181.31,47.02,187.02,54.6z"/>
			<path class="st0" d="M31.96,61.36c0.44-0.7,0.88-1.4,1.33-2.09C32.84,59.96,32.39,60.66,31.96,61.36z"/>
			<path class="st0" d="M171.39,268.93c-16.97-18.44-31.43-24.87-63.07-45c-9.01-5.73-27.48-21.76-27.48-61.59
				c0-1.2-0.45-37.29-0.45-37.29c0-4.9,0.46-9.26,1.38-13.08c1.44-6.02,4-10.72,7.7-14.08c6.05-5.48,13.35-8.23,21.93-8.23
				c8.57,0,15.75,2.75,21.55,8.23c2.32,2.2,4.17,4.98,5.56,8.32h68.18c-3.35-21.77-9.7-39.24-19.04-52.43
				c-5.71-7.58-12.66-14.18-20.82-19.81c-14.59-9.23-33.09-13.87-55.54-13.87c-30.54,0-54.45,10.27-71.73,30.79
				c-2,2.37-3.87,4.9-5.64,7.57c-0.45,0.69-0.89,1.39-1.33,2.09c-12.64,20.39-18.96,49.15-18.96,75.24v39.84
				c0,45.92,23.6,81.06,41.2,92.58c10.91,7.13,34.81,21.31,56.43,37.25c32.83,24.2,29.4,50.81,29.4,74.32c0,11.71,0,48.18,0,48.18
				c0,5.41-0.52,10.14-1.54,14.22c-1.47,5.83-3.97,10.29-7.53,13.35c-6.05,5.22-13.35,7.82-21.93,7.82c-8.57,0-15.75-2.6-21.55-7.82
				c-3.37-3.03-12.82-7.43-14.23-13.16c-0.31-0.62-0.61-1.25-0.9-1.9c-0.01-0.03-0.02-0.06-0.03-0.09H13.64
				c3.41,26.18,10.99,46.66,22.74,61.39c1.97,2.47,4.06,4.79,6.26,6.97c5.95,5.21,12.64,9.65,20.13,13.25
				c12.89,6.21,28.28,9.32,46.15,9.32c19.44,0,35.81-3.51,49.11-10.5c11.37-5.98,20.78-14.09,28.23-24.32
				c14.11-21.15,21.17-51.5,21.17-91.06v-45.58C207.43,334.4,205.99,306.54,171.39,268.93z"/>
		</g>
	</g>
	<g>
		<path d="M1286.94,392.97c0,43.46-8.28,75.58-24.83,96.34c-16.55,20.77-41.02,31.14-73.39,31.14c-65.11,0-97.67-42.49-97.67-127.48
			V134.39c0-43.46,8.64-75.44,25.93-95.97c17.29-20.52,41.2-30.79,71.73-30.79c33.47,0,58.21,10.27,74.21,30.79
			c16,20.53,24.01,52.51,24.01,95.97V392.97z M1219.08,112.6c0-12.61-2.91-21.67-8.7-27.16c-5.8-5.48-12.98-8.23-21.55-8.23
			c-8.58,0-15.88,2.75-21.93,8.23c-6.05,5.49-9.08,14.55-9.08,27.16V415.5c0,13.16,3.03,22.36,9.08,27.57
			c6.05,5.22,13.35,7.82,21.93,7.82c8.57,0,15.75-2.6,21.55-7.82c5.79-5.21,8.7-14.41,8.7-27.57V112.6z"/>
		<path d="M325.46,431.31l-40.13-100.32h-2.74v99.15h-64.13V104.83h69.52L351.49,308h3.28l63.5-287.06h69.53v494.27h-64.46V310.92
			h-2.19l-35.83,120.38H325.46z"/>
		<path d="M1415.1,431.31l-40.13-100.32h-2.74v99.15h-64.13V104.83h69.52l63.5,203.17h3.28l63.5-287.06h69.53v494.27h-64.46V310.92
			h-2.19l-35.83,120.38H1415.1z"/>
		<rect x="1603.62" y="19.46" width="76.93" height="495.76"/>
		<polygon points="886.14,17.6 661.37,17.6 649.87,82.33 725.08,82.33 725.08,511.61 802.66,511.61 802.66,82.33 874.64,82.33 		"/>
		<g>
			<path d="M1005.38,443.07c-5.8,5.22-12.98,7.82-21.55,7.82c-8.58,0-15.88-2.6-21.93-7.82c-6.05-5.21-9.08-14.41-9.08-27.57V112.6
				c0-12.61,3.03-21.67,9.08-27.16c6.05-5.48,13.35-8.23,21.93-8.23c8.57,0,15.75,2.75,21.55,8.23c2.32,2.2,4.17,4.98,5.56,8.32
				h68.18c-3.61-23.4-10.67-41.84-21.19-55.33c-16-20.52-40.75-30.79-74.21-30.79c-30.54,0-54.45,10.27-71.73,30.79
				c-17.29,20.53-25.93,52.51-25.93,95.97v258.58c0,84.99,32.55,127.48,97.67,127.48c32.37,0,56.83-10.38,73.39-31.14
				c11.75-14.74,19.33-35.21,22.74-61.39h-66.86C1011.66,434.63,1009.13,439.69,1005.38,443.07z"/>
		</g>
		<g>
			<path d="M1832.22,443.07c-5.8,5.22-12.98,7.82-21.55,7.82c-8.58,0-15.88-2.6-21.93-7.82c-6.05-5.21-9.08-14.41-9.08-27.57V112.6
				c0-12.61,3.03-21.67,9.08-27.16c6.05-5.48,13.35-8.23,21.93-8.23c8.57,0,15.75,2.75,21.55,8.23c2.32,2.2,4.17,4.98,5.56,8.32
				h68.18c-3.61-23.4-10.67-41.84-21.19-55.33c-16-20.52-40.75-30.79-74.21-30.79c-30.54,0-54.45,10.27-71.73,30.79
				c-17.29,20.53-25.93,52.51-25.93,95.97v258.58c0,84.99,32.55,127.48,97.67,127.48c32.37,0,56.83-10.38,73.39-31.14
				c11.75-14.74,19.33-35.21,22.74-61.39h-66.86C1838.51,434.63,1835.97,439.69,1832.22,443.07z"/>
		</g>
		<g>
			<path d="M577.16,17.94V415.5c0,13.16,2.91,22.36,8.7,27.57c5.8,5.22,12.98,7.82,21.55,7.82c8.58,0,15.88-2.6,21.93-7.82
				c6.05-5.21,9.08-14.41,9.08-27.57V102.03h66.76v290.94c0,84.99-32.55,127.48-97.67,127.48c-32.37,0-56.83-10.38-73.39-31.14
				c-16.55-20.76-24.83-52.88-24.83-96.34V17.94H577.16z"/>
		</g>
		<g>
			<path d="M69.28,429.9c-0.16-0.65-0.32-1.3-0.45-1.99h-0.48c0.01,0.03,0.02,0.06,0.03,0.09C68.67,428.66,68.97,429.28,69.28,429.9
				z"/>
			<path d="M176,41.33c-0.7-0.99-1.41-1.96-2.15-2.9c-5.27-6.76-11.51-12.38-18.67-16.91C163.34,27.15,170.29,33.74,176,41.33z"/>
			<path d="M20.94,48.09c0.44-0.7,0.88-1.4,1.33-2.09C21.82,46.68,21.38,47.38,20.94,48.09z"/>
			<path d="M160.37,255.65c-16.97-18.44-31.43-24.87-63.07-45c-9.01-5.73-27.48-21.76-27.48-61.59c0-1.2-0.45-37.29-0.45-37.29
				c0-4.9,0.46-9.26,1.38-13.08c1.44-6.02,4-10.72,7.7-14.08c6.05-5.48,13.35-8.23,21.93-8.23c8.57,0,15.75,2.75,21.55,8.23
				c2.32,2.2,4.17,4.98,5.56,8.32h68.18c-3.35-21.77-9.7-39.24-19.04-52.43c-5.71-7.58-12.66-14.18-20.82-19.81
				c-14.59-9.23-33.09-13.87-55.54-13.87c-30.54,0-54.45,10.27-71.73,30.79c-2,2.37-3.87,4.9-5.64,7.57
				c-0.45,0.69-0.89,1.39-1.33,2.09C8.94,67.65,2.62,96.41,2.62,122.5v39.84c0,45.92,23.6,81.06,41.2,92.58
				c10.91,7.13,34.81,21.31,56.43,37.25c32.83,24.2,29.4,50.81,29.4,74.32c0,11.71,0,48.18,0,48.18c0,5.41-0.52,10.14-1.54,14.22
				c-1.47,5.83-3.97,10.29-7.53,13.35c-6.05,5.22-13.35,7.82-21.93,7.82c-8.57,0-15.75-2.6-21.55-7.82
				c-3.37-3.03-5.75-7.43-7.16-13.16c-0.31-0.62-0.61-1.25-0.9-1.9c-0.01-0.03-0.02-0.06-0.03-0.09H2.62
				c3.41,26.18,10.99,46.66,22.74,61.39c1.97,2.47,4.06,4.79,6.26,6.97c5.95,5.21,12.64,9.65,20.13,13.25
				c12.89,6.21,28.28,9.32,46.15,9.32c19.44,0,35.81-3.51,49.11-10.5c11.37-5.98,20.78-14.09,28.23-24.32
				c14.11-21.15,21.17-51.5,21.17-91.06v-45.58C196.41,321.12,194.97,293.26,160.37,255.65z"/>
		</g>
	</g>
</g>
</svg>
