<svg width="1164" height="245" viewBox="0 0 1164 245" fill="none" xmlns="http://www.w3.org/2000/svg">
<path d="M317.864 184.901C317.864 205.098 314.014 220.024 306.326 229.667C298.632 239.316 287.264 244.138 272.223 244.138C241.964 244.138 226.837 224.396 226.837 184.901V64.7386C226.837 44.5416 230.851 29.6822 238.891 20.1424C246.925 10.6086 258.032 5.83563 272.223 5.83563C287.774 5.83563 299.276 10.6086 306.708 20.1424C314.141 29.6822 317.864 44.5416 317.864 64.7386V184.901ZM286.329 54.6158C286.329 48.7559 284.981 44.5476 282.285 41.9911C279.589 39.4468 276.249 38.1655 272.271 38.1655C268.282 38.1655 264.893 39.4468 262.082 41.9911C259.27 44.5416 257.861 48.7498 257.861 54.6158V195.37C257.861 201.485 259.27 205.76 262.082 208.183C264.893 210.612 268.288 211.814 272.271 211.814C276.255 211.814 279.589 210.605 282.285 208.183C284.975 205.766 286.329 201.491 286.329 195.37V54.6158Z" fill="black"/>
<path d="M630.183 185.52C630.183 205.717 626.333 220.643 618.645 230.286C610.952 239.936 599.584 244.757 584.542 244.757C554.283 244.757 539.157 225.015 539.157 185.52V65.3641C539.157 45.167 543.171 30.3077 551.211 20.7678C559.244 11.2341 570.351 6.46109 584.542 6.46109C600.094 6.46109 611.595 11.2341 619.028 20.7678C626.461 30.3077 630.183 45.167 630.183 65.3641V185.52ZM598.643 55.2352C598.643 49.3753 597.295 45.167 594.598 42.6105C591.902 40.0662 588.562 38.7849 584.585 38.7849C580.595 38.7849 577.207 40.0662 574.395 42.6105C571.584 45.161 570.175 49.3692 570.175 55.2352V195.989C570.175 202.104 571.584 206.379 574.395 208.802C577.207 211.231 580.601 212.433 584.585 212.433C588.568 212.433 591.902 211.225 594.598 208.802C597.289 206.385 598.643 202.11 598.643 195.989V55.2352Z" fill="black"/>
<path d="M850.043 185.763C850.043 205.96 846.193 220.886 838.505 230.529C830.812 240.178 819.444 245 804.402 245C774.143 245 759.017 225.258 759.017 185.763V65.6009C759.017 45.4039 763.031 30.5445 771.071 21.0047C779.104 11.4709 790.211 6.69792 804.402 6.69792C819.954 6.69792 831.455 11.4709 838.888 21.0047C846.321 30.5445 850.043 45.4039 850.043 65.6009V185.763ZM818.509 55.4781C818.509 49.6182 817.161 45.4099 814.464 42.8534C811.768 40.3091 808.428 39.0278 804.451 39.0278C800.461 39.0278 797.073 40.3091 794.261 42.8534C791.45 45.4039 790.041 49.6121 790.041 55.4781V196.232C790.041 202.347 791.45 206.622 794.261 209.045C797.073 211.474 800.467 212.676 804.451 212.676C808.434 212.676 811.768 211.468 814.464 209.045C817.155 206.628 818.509 202.353 818.509 196.232V55.4781Z" fill="black"/>
<path d="M1085.21 88.3059L1126.38 11.1734H1163.01L1117.62 96.3277L1154.88 241.502H1117.16L1093.91 134.536L1083.55 157.702V202.699H1051.24V50.5594H1083.55V88.3059H1085.21Z" fill="black"/>
<path d="M681.496 87.8202L722.673 10.6876H759.302L713.91 95.8419L751.171 241.016H713.449L690.197 134.05L679.838 157.216V241.016H647.526V10.6876H679.838V87.8202H681.496Z" fill="black"/>
<path d="M912.626 202.019L893.977 155.401H892.702V201.479H862.898V50.3104H895.204L924.716 144.725H926.24L955.753 11.3312H988.064V241.016H958.109V146.079H957.095L940.444 202.019H912.626Z" fill="black"/>
<path d="M1037.52 10.639H1001.78V241.016H1037.52V10.639Z" fill="black"/>
<path d="M161.57 211.073L200.343 100.263L155.571 41.5175L220.364 41.305L225.714 11.228H121.267L115.917 41.305L164.23 105.473L114.32 241.15H220.364L220.534 211.073H161.57Z" fill="black"/>
<path d="M115.638 11.1916H11.1855L5.83569 41.2746H40.7888V240.761H76.8411V41.2746H110.288L115.638 11.1916Z" fill="black"/>
<path d="M390.254 134.105H389.112L357.881 49.6304H330.834V221.153H361.743V147.95H362.879L394.219 240.585H420.482V11.3191H390.254V134.105Z" fill="black"/>
<path d="M539.193 11.3191H434.747L429.397 41.3961H464.35V240.883H500.402V41.3961H533.849L539.193 11.3191Z" fill="black"/>
<path d="M312.028 179.059C312.028 199.256 308.178 214.182 300.49 223.825C292.796 233.474 281.429 238.296 266.387 238.296C236.128 238.296 221.002 218.554 221.002 179.059V58.903C221.002 38.7059 225.015 23.8466 233.055 14.3067C241.089 4.77296 252.196 0 266.387 0C281.939 0 293.44 4.77296 300.873 14.3067C308.305 23.8466 312.028 38.7059 312.028 58.903V179.059ZM280.487 48.7741C280.487 42.9142 279.139 38.7059 276.443 36.1494C273.747 33.6051 270.407 32.3238 266.43 32.3238C262.44 32.3238 259.052 33.6051 256.24 36.1494C253.429 38.6999 252.02 42.9081 252.02 48.7741V189.528C252.02 195.643 253.429 199.918 256.24 202.341C259.052 204.77 262.446 205.972 266.43 205.972C270.413 205.972 273.747 204.764 276.443 202.341C279.133 199.924 280.487 195.649 280.487 189.528V48.7741Z" fill="white"/>
<path d="M624.341 179.684C624.341 199.882 620.491 214.808 612.804 224.451C605.11 234.1 593.742 238.921 578.701 238.921C548.441 238.921 533.315 219.18 533.315 179.684V59.5224C533.315 39.3253 537.329 24.466 545.369 14.9261C553.397 5.39236 564.509 0.6194 578.701 0.6194C594.252 0.6194 605.753 5.39236 613.186 14.9261C620.619 24.466 624.341 39.3253 624.341 59.5224V179.684ZM592.807 49.3935C592.807 43.5336 591.459 39.3253 588.763 36.7688C586.067 34.2245 582.727 32.9432 578.749 32.9432C574.76 32.9432 571.371 34.2245 568.56 36.7688C565.748 39.3193 564.339 43.5275 564.339 49.3935V190.147C564.339 196.262 565.748 200.537 568.56 202.96C571.371 205.389 574.766 206.592 578.749 206.592C582.733 206.592 586.067 205.383 588.763 202.96C591.453 200.543 592.807 196.268 592.807 190.147V49.3935Z" fill="white"/>
<path d="M844.201 179.921C844.201 200.118 840.351 215.044 832.663 224.688C824.97 234.337 813.602 239.158 798.56 239.158C768.301 239.158 753.175 219.417 753.175 179.921V59.7653C753.175 39.5682 757.189 24.7089 765.229 15.169C773.263 5.63525 784.369 0.862289 798.56 0.862289C814.112 0.862289 825.613 5.63525 833.046 15.169C840.479 24.7089 844.201 39.5682 844.201 59.7653V179.921ZM812.667 49.6364C812.667 43.7765 811.319 39.5682 808.623 37.0117C805.926 34.4674 802.587 33.1861 798.609 33.1861C794.619 33.1861 791.231 34.4674 788.419 37.0117C785.608 39.5622 784.199 43.7704 784.199 49.6364V190.39C784.199 196.505 785.608 200.78 788.419 203.203C791.231 205.632 794.626 206.834 798.609 206.834C802.593 206.834 805.926 205.626 808.623 203.203C811.313 200.786 812.667 196.511 812.667 190.39V49.6364Z" fill="white"/>
<path d="M1079.36 82.4642L1120.54 5.33162H1157.17L1111.78 90.4859L1149.05 235.667H1111.32L1088.07 128.7L1077.71 151.866V196.863H1045.39V44.7237H1077.71V82.4702H1079.36V82.4642Z" fill="white"/>
<path d="M675.66 81.9784L716.837 4.84584H753.466L708.075 90.0001L745.335 235.175H707.613L684.362 128.208L674.002 151.375V235.175H641.69V4.84584H674.002V81.9784H675.66Z" fill="white"/>
<path d="M906.79 196.183L888.142 149.565H886.866V195.643H857.063V44.4687H889.368L918.88 138.883H920.405L949.917 5.48947H982.229V235.175H952.273V140.244H951.259L934.608 196.183H906.79Z" fill="white"/>
<path d="M1031.68 4.79724H995.934V235.175H1031.68V4.79724Z" fill="white"/>
<path d="M156.154 205.201L193.603 97.6211L147.604 35.6454L214.947 35.4329L220.297 5.35591H115.845L110.501 35.4329L158.807 99.6007L108.904 235.278H214.947L215.117 205.201H156.154Z" fill="white"/>
<path d="M109.796 5.35591H5.34378L0 35.4329H34.9532V234.92H70.9994V35.4329H104.447L109.796 5.35591Z" fill="white"/>
<path d="M384.412 128.269H383.276L352.039 43.7947H324.993V215.312H355.901V142.108H357.043L388.383 234.744H414.64V5.47736H384.412V128.269Z" fill="white"/>
<path d="M533.357 5.47736H428.905L423.561 35.5604H458.508V235.041H494.56V35.5604H528.008L533.357 5.47736Z" fill="white"/>
</svg>
