<?xml version="1.0" encoding="utf-8"?>
<!-- Generator: Adobe Illustrator 23.0.1, SVG Export Plug-In . SVG Version: 6.00 Build 0)  -->
<svg version="1.1" id="Layer_1" xmlns="http://www.w3.org/2000/svg" xmlns:xlink="http://www.w3.org/1999/xlink" x="0px" y="0px"
	 viewBox="0 0 1920 422" style="enable-background:new 0 0 1920 422;" xml:space="preserve">
<style type="text/css">
	.st0{fill:#FFFFFF;}
	.st1{fill:#231F20;}
</style>
<g>
	<g>
		<path class="st0" d="M527.23,309.11c0,33.26-6.34,57.84-19,73.72c-12.67,15.89-31.39,23.83-56.16,23.83
			c-49.83,0-74.74-32.51-74.74-97.55V111.23c0-33.26,6.61-57.73,19.85-73.44c13.23-15.7,31.52-23.56,54.89-23.56
			c25.61,0,44.55,7.86,56.79,23.56c12.24,15.71,18.37,40.18,18.37,73.44V309.11z M475.3,94.56c0-9.65-2.22-16.58-6.66-20.79
			c-4.44-4.19-9.94-6.3-16.49-6.3c-6.57,0-12.15,2.11-16.78,6.3c-4.63,4.2-6.95,11.13-6.95,20.79v231.79
			c0,10.07,2.32,17.11,6.95,21.1c4.63,4,10.22,5.98,16.78,5.98c6.56,0,12.05-1.99,16.49-5.98c4.43-3.98,6.66-11.02,6.66-21.1V94.56z
			"/>
		<path class="st0" d="M1041.55,310.13c0,33.26-6.34,57.84-19,73.72c-12.67,15.89-31.39,23.83-56.16,23.83
			c-49.83,0-74.74-32.51-74.74-97.55V112.26c0-33.26,6.61-57.73,19.85-73.44c13.23-15.7,31.52-23.56,54.89-23.56
			c25.61,0,44.55,7.86,56.79,23.56c12.24,15.71,18.37,40.18,18.37,73.44V310.13z M989.61,95.58c0-9.65-2.22-16.58-6.66-20.79
			c-4.44-4.19-9.94-6.3-16.49-6.3c-6.57,0-12.15,2.11-16.78,6.3c-4.63,4.2-6.95,11.13-6.95,20.79v231.79
			c0,10.07,2.32,17.11,6.95,21.1c4.63,4,10.22,5.98,16.78,5.98c6.56,0,12.05-1.99,16.49-5.98c4.43-3.98,6.66-11.02,6.66-21.1V95.58z
			"/>
		<path class="st0" d="M1403.61,310.53c0,33.26-6.34,57.84-19,73.72c-12.67,15.89-31.39,23.83-56.16,23.83
			c-49.83,0-74.74-32.51-74.74-97.55V112.65c0-33.26,6.61-57.73,19.85-73.44c13.23-15.7,31.52-23.56,54.89-23.56
			c25.61,0,44.55,7.86,56.79,23.56c12.24,15.71,18.37,40.18,18.37,73.44V310.53z M1351.68,95.98c0-9.65-2.22-16.58-6.66-20.79
			c-4.44-4.19-9.94-6.3-16.49-6.3c-6.57,0-12.15,2.11-16.78,6.3c-4.63,4.2-6.95,11.13-6.95,20.79v231.79
			c0,10.07,2.32,17.11,6.95,21.1c4.63,4,10.22,5.98,16.78,5.98c6.56,0,12.05-1.99,16.49-5.98c4.43-3.98,6.66-11.02,6.66-21.1V95.98z
			"/>
		<path class="st0" d="M1790.87,150.04l67.81-127.02H1919l-74.75,140.23l61.36,239.07h-62.12l-38.29-176.15l-17.06,38.15v74.1
			h-53.21V87.88h53.21v62.16H1790.87z"/>
		<path class="st0" d="M1126.05,149.24l67.81-127.02h60.32l-74.75,140.23l61.36,239.07h-62.12l-38.29-176.15l-17.06,38.15v138
			h-53.21V22.22h53.21v127.02H1126.05z"/>
		<path class="st0" d="M1506.67,337.3l-30.71-76.77h-2.1v75.88h-49.08V87.47h53.2l48.6,155.48h2.51l48.6-219.67h53.21v378.24h-49.33
			V245.18h-1.67l-27.42,92.12H1506.67z"/>
		<rect x="1653.48" y="22.14" class="st0" width="58.87" height="379.38"/>
		<polygon class="st0" points="269.85,352.21 333.7,169.73 259.97,72.99 366.67,72.64 375.48,23.11 203.48,23.11 194.67,72.64 
			274.23,178.31 192.04,401.74 366.67,401.74 366.95,352.21 		"/>
		<polygon class="st0" points="194.21,23.05 22.2,23.05 13.39,72.59 70.95,72.59 70.95,401.1 130.32,401.1 130.32,72.59 
			185.4,72.59 		"/>
		<polygon class="st0" points="646.44,225.46 644.56,225.46 593.13,86.35 548.59,86.35 548.59,368.81 599.49,368.81 599.49,248.26 
			601.36,248.26 652.97,400.81 696.22,400.81 696.22,23.26 646.44,23.26 		"/>
		<polygon class="st0" points="891.71,23.26 719.71,23.26 710.9,72.79 768.46,72.79 768.46,401.3 827.83,401.3 827.83,72.79 
			882.91,72.79 		"/>
	</g>
	<g>
		<path class="st1" d="M517.62,299.49c0,33.26-6.34,57.84-19,73.72c-12.67,15.89-31.39,23.83-56.16,23.83
			c-49.83,0-74.74-32.51-74.74-97.55V101.62c0-33.26,6.61-57.73,19.85-73.44c13.23-15.7,31.52-23.56,54.89-23.56
			c25.61,0,44.55,7.86,56.79,23.56c12.24,15.71,18.37,40.18,18.37,73.44V299.49z M465.68,84.94c0-9.65-2.22-16.58-6.66-20.79
			c-4.44-4.19-9.94-6.3-16.49-6.3c-6.57,0-12.15,2.11-16.78,6.3c-4.63,4.2-6.95,11.13-6.95,20.79v231.79
			c0,10.07,2.32,17.11,6.95,21.1c4.63,4,10.22,5.98,16.78,5.98c6.56,0,12.05-1.99,16.49-5.98c4.43-3.98,6.66-11.02,6.66-21.1V84.94z
			"/>
		<path class="st1" d="M1031.93,300.52c0,33.26-6.34,57.84-19,73.72c-12.67,15.89-31.39,23.83-56.16,23.83
			c-49.83,0-74.74-32.51-74.74-97.55V102.64c0-33.26,6.61-57.73,19.85-73.44C915.1,13.5,933.4,5.64,956.77,5.64
			c25.61,0,44.55,7.86,56.79,23.56c12.24,15.71,18.37,40.18,18.37,73.44V300.52z M980,85.96c0-9.65-2.22-16.58-6.66-20.79
			c-4.44-4.19-9.94-6.3-16.49-6.3c-6.57,0-12.15,2.11-16.78,6.3c-4.63,4.2-6.95,11.13-6.95,20.79v231.79
			c0,10.07,2.32,17.11,6.95,21.1c4.63,4,10.22,5.98,16.78,5.98c6.56,0,12.05-1.99,16.49-5.98c4.43-3.98,6.66-11.02,6.66-21.1V85.96z
			"/>
		<path class="st1" d="M1393.99,300.91c0,33.26-6.34,57.84-19,73.72c-12.67,15.89-31.39,23.83-56.16,23.83
			c-49.83,0-74.74-32.51-74.74-97.55V103.04c0-33.26,6.61-57.73,19.85-73.44c13.23-15.7,31.52-23.56,54.89-23.56
			c25.61,0,44.55,7.86,56.79,23.56c12.24,15.71,18.37,40.18,18.37,73.44V300.91z M1342.06,86.36c0-9.65-2.22-16.58-6.66-20.79
			c-4.44-4.19-9.94-6.3-16.49-6.3c-6.57,0-12.15,2.11-16.78,6.3c-4.63,4.2-6.95,11.13-6.95,20.79v231.79
			c0,10.07,2.32,17.11,6.95,21.1c4.63,4,10.22,5.98,16.78,5.98c6.56,0,12.05-1.99,16.49-5.98c4.43-3.98,6.66-11.02,6.66-21.1V86.36z
			"/>
		<path class="st1" d="M1781.25,140.42l67.81-127.02h60.32l-74.75,140.23L1896,392.71h-62.12l-38.3-176.15l-17.06,38.15v74.1h-53.21
			V78.27h53.21v62.16H1781.25z"/>
		<path class="st1" d="M1116.44,139.62l67.81-127.02h60.32l-74.75,140.23l61.36,239.07h-62.12l-38.29-176.15l-17.06,38.15v138
			h-53.21V12.6h53.21v127.02H1116.44z"/>
		<path class="st1" d="M1497.06,327.69l-30.71-76.77h-2.1v75.88h-49.08V77.85h53.2l48.6,155.48h2.51l48.6-219.67h53.21V391.9h-49.33
			V235.57h-1.67l-27.42,92.12H1497.06z"/>
		<rect x="1643.86" y="12.52" class="st1" width="58.87" height="379.38"/>
		<polygon class="st1" points="260.93,342.54 322.6,165.38 246.85,63.32 357.75,62.97 366.56,13.44 194.55,13.44 185.75,62.97 
			265.3,168.64 183.12,392.07 357.75,392.07 358.03,342.54 		"/>
		<polygon class="st1" points="184.59,13.44 12.58,13.44 3.78,62.97 61.34,62.97 61.34,391.48 120.7,391.48 120.7,62.97 
			175.78,62.97 		"/>
		<polygon class="st1" points="636.82,215.85 634.95,215.85 583.51,76.74 538.97,76.74 538.97,359.19 589.87,359.19 589.87,238.64 
			591.75,238.64 643.36,391.19 686.6,391.19 686.6,13.64 636.82,13.64 		"/>
		<polygon class="st1" points="882.1,13.64 710.09,13.64 701.29,63.18 758.84,63.18 758.84,391.68 818.21,391.68 818.21,63.18 
			873.29,63.18 		"/>
	</g>
</g>
</svg>
